<svg xmlns="http://www.w3.org/2000/svg" viewBox="0 0 1172.37 160.4"><defs><style>.cls-1,.cls-2{fill:#231f20;}.cls-1{fill-rule:evenodd;}</style></defs><title>LogoTeatrBlack</title><g id="Layer_2" data-name="Layer 2"><g id="Layer_1-2" data-name="Layer 1"><path class="cls-1" d="M253.68,17.06v86.41a61.31,61.31,0,0,1-105.26,38.21A61.31,61.31,0,0,1,43.16,103.47V17.06a17.06,17.06,0,0,1,34.12,0V27.89a8.54,8.54,0,0,0,8.54,8.54,8.87,8.87,0,0,0,3.35-.69,16.72,16.72,0,0,1,7.14-1.56,17.1,17.1,0,1,1-7.14,32.63,8.45,8.45,0,0,0-3.35-.66,8.55,8.55,0,0,0-8.54,8.56v28.76c.65,6.17,3.52,12.85,7.19,16,5.11,4.44,11.3,6.69,19.85,6.69s14.73-2.25,19.85-6.69c3.66-3.2,6.53-9.88,7.19-16V17.06a17.06,17.06,0,0,1,34.12,0v86.41c.65,6.17,3.52,12.85,7.19,16,5.11,4.44,11.3,6.69,19.85,6.69s14.73-2.25,19.85-6.69c3.66-3.2,6.53-9.88,7.19-16V17.06a17.06,17.06,0,0,1,34.12,0"/><path class="cls-1" d="M34.2,51.48A17.1,17.1,0,1,1,17.1,34.39,17.11,17.11,0,0,1,34.2,51.48"/><polygon class="cls-2" points="308.45 67.14 297.64 67.14 297.64 61.6 325.44 61.6 325.44 67.14 314.65 67.14 314.65 96.1 308.45 96.1 308.45 67.14"/><polygon class="cls-2" points="330.4 61.6 353.35 61.6 353.35 67.29 336.6 67.29 336.6 76 352.2 76 352.2 81.69 336.6 81.69 336.6 90.24 353.35 90.24 353.35 96.1 330.4 96.1 330.4 61.6"/><path class="cls-2" d="M370.47,61.6h4.63l13.75,34.5h-6.69l-2.76-7.5H366.19l-2.78,7.5h-6.76Zm7,21.71-4.64-12.6-4.66,12.6Z"/><polygon class="cls-2" points="397.2 67.14 386.38 67.14 386.38 61.6 414.19 61.6 414.19 67.14 403.4 67.14 403.4 96.1 397.2 96.1 397.2 67.14"/><path class="cls-2" d="M419.15,61.6H430.3c6.45,0,11.94,3.69,11.94,10.16a9.45,9.45,0,0,1-6.74,9l9.6,15.36H438L429.5,81.35h-4.15V96.1h-6.2Zm11.72,14.7c3.29-.15,5.24-1.86,5.24-4.44,0-2.86-2.22-4.72-5.76-4.72h-5V76.3Z"/><polygon class="cls-2" points="458.33 61.6 464.78 61.6 472.13 86.99 479.77 63.6 484.58 63.6 492.22 86.99 499.57 61.6 506.01 61.6 495.66 96.1 489.68 96.1 482.16 73.39 474.66 96.1 468.68 96.1 458.33 61.6"/><path class="cls-2" d="M507.57,86.36l6.16-1.57c.44,4.3,3.49,6.21,7.15,6.21s5.69-2,5.69-4.4c0-7.15-16.7-4.76-16.7-16,0-6.1,5-9.52,10.77-9.52a11.53,11.53,0,0,1,10.49,6L526,70.29a6.24,6.24,0,0,0-5.56-3.68c-2.45,0-4.35,1.48-4.35,3.68,0,6.5,16.7,4.3,16.7,15.75,0,6.52-5.4,10.45-12,10.45-6.1,0-12.11-3.35-13.21-10.13"/><path class="cls-2" d="M538.68,61.6h10.81c7,0,12.19,3.69,12.19,10.21s-5.16,10-12.19,10h-4.66V96.1h-6.15ZM549.49,76c4.25,0,6-1.47,6-4.2s-1.83-4.42-6-4.42h-4.66V76Z"/><path class="cls-2" d="M564.73,78.84c0-9.4,5.25-17.75,16.65-17.75S598,69.44,598,78.84s-5.25,17.75-16.65,17.75-16.65-8.35-16.65-17.75m26.76,0c0-6.5-2.71-12.23-10.11-12.23s-10.11,5.73-10.11,12.23S574,91.09,581.38,91.09s10.11-5.73,10.11-12.25M584,51.54h6.34l-7.49,7.06h-4.35Z"/><polygon class="cls-2" points="625.62 90.24 625.62 96.1 604.67 96.1 604.67 87.99 601.13 92 601.13 85.41 604.67 81.43 604.67 61.6 610.87 61.6 610.87 74.42 615.73 68.95 615.73 75.52 610.87 81.01 610.87 90.24 625.62 90.24"/><path class="cls-2" d="M627,78.84c0-9.45,5.3-17.8,16.65-17.8A15.7,15.7,0,0,1,658.77,71L653,73.25c-1.29-4.54-4.85-6.3-9.35-6.3-7.3,0-10.45,5.25-10.45,11.64,0,6.86,3.15,12.11,10.55,12.11,4.45,0,7.5-1.76,9.35-6.39l5.74,2.34a15.65,15.65,0,0,1-15.09,9.94c-11.35,0-16.7-8.28-16.7-17.75"/><polygon class="cls-2" points="689.24 66.09 670.07 90.51 689.24 90.51 689.24 96.1 661.43 96.1 661.43 91.8 680.67 67.29 662.53 67.29 662.53 61.6 689.24 61.6 689.24 66.09"/><polygon class="cls-2" points="695.49 61.6 718.44 61.6 718.44 67.29 701.69 67.29 701.69 76 717.29 76 717.29 81.69 701.69 81.69 701.69 90.24 718.44 90.24 718.44 96.1 695.49 96.1 695.49 61.6"/><path class="cls-2" d="M722.54,86.36l6.15-1.57c.44,4.3,3.49,6.21,7.16,6.21s5.68-2,5.68-4.4c0-7.15-16.7-4.76-16.7-16,0-6.1,5-9.52,10.77-9.52a11.54,11.54,0,0,1,10.5,6L741,70.29a6.26,6.26,0,0,0-5.57-3.68c-2.44,0-4.34,1.48-4.34,3.68,0,6.5,16.69,4.3,16.69,15.75,0,6.52-5.39,10.45-12,10.45-6.11,0-12.11-3.35-13.21-10.13"/><polygon class="cls-2" points="780.25 61.6 780.25 96.1 774.05 96.1 759.6 71.86 759.6 96.1 753.64 96.1 753.64 61.6 759.79 61.6 774.3 85.72 774.3 61.6 780.25 61.6"/><polygon class="cls-2" points="797.59 82.65 784.65 61.6 792.14 61.6 800.74 76.69 809.4 61.6 816.95 61.6 804.06 82.65 804.06 96.1 797.59 96.1 797.59 82.65"/><polygon class="cls-2" points="829.57 61.6 836.02 61.6 843.37 86.99 851.01 63.6 855.82 63.6 863.46 86.99 870.81 61.6 877.25 61.6 866.9 96.1 860.92 96.1 853.4 73.39 845.9 96.1 839.92 96.1 829.57 61.6"/><path class="cls-2" d="M891,86.36l6.15-1.57c.44,4.3,3.5,6.21,7.16,6.21S910,89,910,86.6c0-7.15-16.7-4.76-16.7-16,0-6.1,4.95-9.52,10.76-9.52a11.54,11.54,0,0,1,10.5,6l-5.15,3.15a6.26,6.26,0,0,0-5.57-3.68c-2.44,0-4.34,1.48-4.34,3.68,0,6.5,16.7,4.3,16.7,15.75,0,6.52-5.4,10.45-12,10.45-6.1,0-12.11-3.35-13.21-10.13"/><polygon class="cls-2" points="947.22 66.09 928.06 90.51 947.22 90.51 947.22 96.1 919.41 96.1 919.41 91.8 938.65 67.29 920.51 67.29 920.51 61.6 947.22 61.6 947.22 66.09"/><path class="cls-2" d="M950,78.84c0-9.45,5.3-17.8,16.65-17.8A15.71,15.71,0,0,1,981.77,71L976,73.25c-1.29-4.54-4.86-6.3-9.35-6.3-7.3,0-10.45,5.25-10.45,11.64,0,6.86,3.15,12.11,10.55,12.11,4.44,0,7.49-1.76,9.35-6.39l5.74,2.34a15.66,15.66,0,0,1-15.09,9.94c-11.35,0-16.7-8.28-16.7-17.75"/><polygon class="cls-2" points="1012.24 66.09 993.07 90.51 1012.24 90.51 1012.24 96.1 984.43 96.1 984.43 91.8 1003.67 67.29 985.53 67.29 985.53 61.6 1012.24 61.6 1012.24 66.09"/><polygon class="cls-2" points="1018.49 61.6 1041.44 61.6 1041.44 67.29 1024.69 67.29 1024.69 76 1040.29 76 1040.29 81.69 1024.69 81.69 1024.69 90.24 1041.44 90.24 1041.44 96.1 1018.49 96.1 1018.49 61.6"/><path class="cls-2" d="M1046.34,78.84c0-9.45,5.3-17.8,16.65-17.8A15.7,15.7,0,0,1,1078.08,71l-5.78,2.3c-1.3-4.54-4.86-6.3-9.35-6.3-7.3,0-10.45,5.25-10.45,11.64,0,6.86,3.15,12.11,10.54,12.11,4.45,0,7.5-1.76,9.35-6.39l5.74,2.34A15.65,15.65,0,0,1,1063,96.59c-11.35,0-16.7-8.28-16.7-17.75"/><rect class="cls-2" x="1083.75" y="61.6" width="6.2" height="34.5"/><polygon class="cls-2" points="1125.44 61.6 1125.44 96.1 1119.24 96.1 1104.79 71.86 1104.79 96.1 1098.84 96.1 1098.84 61.6 1104.99 61.6 1119.49 85.72 1119.49 61.6 1125.44 61.6"/><rect class="cls-2" x="1134.33" y="61.6" width="6.2" height="34.5"/><polygon class="cls-2" points="1149.42 61.6 1172.37 61.6 1172.37 67.29 1155.62 67.29 1155.62 76 1171.22 76 1171.22 81.69 1155.62 81.69 1155.62 90.24 1172.37 90.24 1172.37 96.1 1149.42 96.1 1149.42 61.6"/></g></g></svg>