<svg xmlns="http://www.w3.org/2000/svg" viewBox="0 0 266.46 248.96"><defs><style>.cls-1,.cls-3{fill:#231f20;}.cls-2{fill:#999b9e;}.cls-3{fill-rule:evenodd;}</style></defs><title>LogoM</title><g id="Layer_2" data-name="Layer 2"><g id="Layer_1-2" data-name="Layer 1"><rect class="cls-1" y="126.54" width="266.46" height="1"/><path class="cls-2" d="M22.15,30.24l0-6.68c0-.34,0-1.15,0-2.37-.24,1.15-.44,2-.55,2.41L20,30.24H17l-1.67-6.49c-.19-.73-.35-1.58-.54-2.56,0,1.17.06,2,.06,2.51v6.54H11V16.68H16.2l1.85,6.77.45,2c.18-1,.33-1.64.42-2l1.89-6.79H26V30.24Z"/><path class="cls-2" d="M28.91,19.21V16.34h3.95v2.87Zm0,11v-10h3.95v10Z"/><path class="cls-2" d="M42.27,30.24V25.05c0-1.37-.26-2-1.33-2s-1.46.66-1.46,2v5.17H35.57v-10h3.55V21.7A4.13,4.13,0,0,1,42.57,20a3.44,3.44,0,0,1,2.8,1.21c.76.92.81,2.13.81,3.86v5.21Z"/><path class="cls-2" d="M48.8,19.21V16.34h4v2.87Zm0,11v-10h4v10Z"/><path class="cls-2" d="M59.83,30.6c-3.19,0-4.85-1.17-5-3.51h3.8a1.12,1.12,0,0,0,1.28,1.26c.83,0,1.27-.3,1.27-.83,0-.71-.55-.79-1.65-1-3-.66-4.44-1.21-4.44-3.32s1.65-3.3,4.83-3.3c3,0,4.56,1.07,4.8,3.15H61.18a1.11,1.11,0,0,0-1.24-1c-.7,0-1,.26-1,.69,0,.72.64.72,1.87,1C63.69,24.41,65,25,65,27.13S63.28,30.6,59.83,30.6Z"/><path class="cls-2" d="M70.91,30.41c-2.43,0-3.33-.7-3.33-2.87v-5H66.19V20.22h1.39V17.13h3.89v3.09H73.3v2.31H71.47v4c0,.71.37.92,1.31.92a5.53,5.53,0,0,0,.56,0v2.88C72.49,30.37,71.67,30.41,70.91,30.41Z"/><path class="cls-2" d="M78.6,26.11c0,1.28.69,2,1.82,2a1.39,1.39,0,0,0,1.46-.83h3.74c-.53,2.17-2.39,3.32-5.43,3.32-3.4,0-5.5-2.1-5.5-5.28,0-3.36,2.15-5.45,5.65-5.45s5.6,2.22,5.6,6v.25Zm1.7-3.87c-1,0-1.64.68-1.7,1.87h3.49C82,22.87,81.42,22.24,80.3,22.24Z"/><path class="cls-2" d="M93.82,23.88c-1.58,0-2.3.7-2.3,2.25v4.11H87.59v-10H91.2v1.83A2.86,2.86,0,0,1,94.26,20h.35v4A5.79,5.79,0,0,0,93.82,23.88Z"/><path class="cls-2" d="M100.93,30.6q-4.77,0-5-3.51h3.8A1.12,1.12,0,0,0,101,28.35c.83,0,1.28-.3,1.28-.83,0-.71-.56-.79-1.65-1-3-.66-4.45-1.21-4.45-3.32s1.65-3.3,4.84-3.3c2.94,0,4.55,1.07,4.8,3.15h-3.52A1.13,1.13,0,0,0,101,22c-.7,0-1.05.26-1.05.69,0,.72.65.72,1.87,1,2.93.68,4.28,1.23,4.28,3.4S104.38,30.6,100.93,30.6Z"/><path class="cls-2" d="M112.07,30.41c-2.43,0-3.34-.7-3.34-2.87v-5h-1.39V20.22h1.39V17.13h3.9v3.09h1.83v2.31h-1.83v4c0,.71.37.92,1.31.92a5.53,5.53,0,0,0,.56,0v2.88C113.65,30.37,112.83,30.41,112.07,30.41Z"/><path class="cls-2" d="M129.58,30.24h-3.83l-1.43-5.79-1.43,5.79h-3.83l-3.25-10h3.88l1.46,6.12,1.52-6.12H126l1.52,6.12L129,20.22h3.73Z"/><path class="cls-2" d="M138.61,30.6c-3.47,0-5.56-2.06-5.56-5.38s2.09-5.35,5.56-5.35,5.56,2,5.56,5.35S142.07,30.6,138.61,30.6Zm0-8c-1.19,0-1.62.81-1.62,2.58s.43,2.61,1.62,2.61,1.63-.83,1.63-2.61S139.79,22.64,138.61,22.64Z"/><path class="cls-1" d="M22.51,53.34,18.11,46l-1.43,1.5v5.83H11V35h5.73v6.05L21.86,35h6.7l-6.43,6.74,7.26,11.56Z"/><path class="cls-1" d="M39.61,53.34v-2A5.58,5.58,0,0,1,35,53.7a4.63,4.63,0,0,1-3.77-1.64c-1-1.24-1.08-2.9-1.08-5.24v-7h5.28v7c0,1.85.35,2.72,1.8,2.72s2-.92,2-2.75v-7h5.28V53.34Z"/><path class="cls-1" d="M47.79,53.34V35h5.33v18.3Z"/><path class="cls-1" d="M61.85,53.57c-3.28,0-4.51-1-4.51-3.87V42.93H55.47V39.82h1.87V35.65H62.6v4.17h2.48v3.11H62.6v5.39c0,1,.5,1.25,1.77,1.25a6.87,6.87,0,0,0,.76,0v3.9C64,53.52,62.87,53.57,61.85,53.57Z"/><path class="cls-1" d="M77,53.34v-2a5.58,5.58,0,0,1-4.66,2.35,4.63,4.63,0,0,1-3.77-1.64c-1-1.24-1.08-2.9-1.08-5.24v-7h5.28v7c0,1.85.35,2.72,1.8,2.72s2-.92,2-2.75v-7h5.28V53.34Z"/><path class="cls-1" d="M93.49,44.76c-2.12,0-3.1.94-3.1,3v5.55h-5.3V39.82H90v2.47a3.84,3.84,0,0,1,4.12-2.83h.48v5.38A8.73,8.73,0,0,0,93.49,44.76Z"/><path class="cls-1" d="M106.64,53.26c-.68,2.09-1.18,3.59-2,4.38-1,1-2.32,1.12-4.17,1.12-.63,0-1.53,0-2.68-.1v-4h1.5c1,0,1.45-.3,1.45-1.14a4.3,4.3,0,0,0-.27-1.33L96,39.82h5.36l2.32,8.2,2.25-8.2h5Z"/><path class="cls-2" d="M10.88,61.64V58.77h3.95v2.87Zm0,11v-10h3.95v10Z"/><path class="cls-2" d="M32.88,72.1a12,12,0,0,1-4.78.57H23.72V59.11h5.17c1.91,0,3.4.06,4.62.77q2.77,1.63,2.78,6C36.29,69,35.12,71.08,32.88,72.1Zm-3.67-9.56H28v6.69h1.14c2.12,0,2.84-.81,2.84-3.33S31.23,62.54,29.21,62.54Z"/><path class="cls-2" d="M37.47,72.67V70L42,65.58h-4.1V62.65h8.72v2.68l-4.38,4.41h4.6v2.93Z"/><path class="cls-2" d="M48.53,61.64V58.77h3.95v2.87Zm0,11v-10h3.95v10Z"/><path class="cls-2" d="M58.33,68.54c0,1.28.69,2,1.82,2a1.4,1.4,0,0,0,1.46-.83h3.75C64.82,71.87,63,73,59.93,73c-3.41,0-5.51-2.09-5.51-5.28,0-3.35,2.15-5.44,5.65-5.44s5.6,2.22,5.6,6v.25ZM60,64.67c-1,0-1.65.68-1.71,1.87h3.49C61.74,65.29,61.15,64.67,60,64.67Z"/><path class="cls-2" d="M74.49,72.67V71.44A3.88,3.88,0,0,1,71.27,73C68.78,73,67,71,67,67.71s1.78-5.36,4.19-5.36a3.59,3.59,0,0,1,2.91,1.38V59.11H78V72.67Zm-1.93-7.23c-1.09,0-1.59.76-1.59,2.32s.61,2.32,1.59,2.32,1.62-.83,1.62-2.32S73.66,65.44,72.56,65.44Z"/><path class="cls-2" d="M79.5,72.67V70L84,65.58h-4.1V62.65h8.71v2.68l-4.37,4.41h4.6v2.93Z"/><path class="cls-2" d="M90.56,61.64V58.77h4v2.87Zm0,11v-10h4v10Z"/><path class="cls-2" d="M101.62,73C98.1,73,96,70.93,96,67.65s2.14-5.35,5.62-5.35c3.21,0,5.24,1.66,5.34,4.16H103a1.31,1.31,0,0,0-1.45-1.39c-1.15,0-1.65.83-1.65,2.58s.48,2.6,1.61,2.6A1.42,1.42,0,0,0,103,68.76H107C106.79,71.38,104.79,73,101.62,73Z"/><path class="cls-2" d="M112.64,72.83c-2.43,0-3.33-.69-3.33-2.86V65h-1.39v-2.3h1.39V59.56h3.89v3.09H115V65H113.2v4c0,.72.37.92,1.32.92h.55v2.88C114.22,72.8,113.4,72.83,112.64,72.83Z"/><path class="cls-2" d="M129.92,72.67h-3.84l-1.43-5.79-1.42,5.79h-3.84l-3.24-10H120l1.46,6.11L123,62.65h3.3l1.52,6.11,1.47-6.11H133Z"/><path class="cls-2" d="M140.53,72.67l-.24-1A5,5,0,0,1,136.72,73c-2.24,0-3.49-1.17-3.49-3.18,0-2.23,1.37-2.85,4.28-3.23,1.89-.24,2.71-.15,2.71-1.07,0-.59-.46-.83-1.41-.83s-1.24.32-1.31,1h-3.82c0-2.25,1.81-3.41,5.26-3.41a7.42,7.42,0,0,1,3.84.84A2.86,2.86,0,0,1,144,66v5.58a1,1,0,0,0,.42.85v.29Zm-.35-4.47c-1.81.69-3,.56-3,1.52,0,.57.39.91,1.11.91,1.32,0,1.87-.6,1.87-1.92A4.35,4.35,0,0,0,140.18,68.2Z"/><path class="cls-2" d="M19.46,91.52l-3.74-6.26a10,10,0,0,1-.78-1.94,11.2,11.2,0,0,1,.11,1.85v6.35H11V78h4.06l3.74,6.3a8.66,8.66,0,0,1,.78,1.95,12.35,12.35,0,0,1-.11-1.85V78h4.08V91.52Z"/><path class="cls-2" d="M32.64,91.52l-.24-1a5,5,0,0,1-3.58,1.32c-2.24,0-3.48-1.17-3.48-3.18,0-2.23,1.37-2.85,4.28-3.23,1.89-.25,2.7-.15,2.7-1.08,0-.58-.46-.82-1.41-.82s-1.24.32-1.31,1H25.78c0-2.24,1.82-3.41,5.26-3.41a7.4,7.4,0,0,1,3.84.85,2.85,2.85,0,0,1,1.26,2.81v5.58a1,1,0,0,0,.43.85v.28Zm-.35-4.47c-1.82.7-3,.57-3,1.53,0,.57.39.91,1.11.91,1.32,0,1.87-.61,1.87-1.93C32.3,87.39,32.3,87.22,32.29,87.05Z"/><path class="cls-2" d="M44.52,85.17c-1.57,0-2.3.7-2.3,2.24v4.11H38.29v-10h3.62v1.83A2.86,2.86,0,0,1,45,81.24h.35v4C45,85.19,44.76,85.17,44.52,85.17Z"/><path class="cls-2" d="M51.71,91.88c-3.47,0-5.56-2-5.56-5.37s2.09-5.36,5.56-5.36,5.56,2,5.56,5.36S55.18,91.88,51.71,91.88Zm0-8c-1.19,0-1.61.81-1.61,2.59s.42,2.6,1.61,2.6,1.63-.83,1.63-2.6S52.9,83.92,51.71,83.92Z"/><path class="cls-2" d="M65.76,91.52V90.3a3.91,3.91,0,0,1-3.23,1.58c-2.48,0-4.22-2-4.22-5.32s1.78-5.35,4.19-5.35a3.63,3.63,0,0,1,2.91,1.37V78h3.81V91.52ZM63.83,84.3c-1.09,0-1.59.75-1.59,2.32s.61,2.32,1.59,2.32,1.61-.83,1.61-2.32S64.92,84.3,63.83,84.3Z"/><path class="cls-2" d="M76.3,91.88c-3.46,0-5.56-2-5.56-5.37s2.1-5.36,5.56-5.36,5.56,2,5.56,5.36S79.77,91.88,76.3,91.88Zm0-8c-1.19,0-1.61.81-1.61,2.59s.42,2.6,1.61,2.6,1.63-.83,1.63-2.6S77.49,83.92,76.3,83.92Z"/><path class="cls-2" d="M95.85,91.52H92l-1.43-5.79-1.43,5.79H85.33l-3.25-10H86l1.46,6.11,1.52-6.11h3.3l1.52,6.11,1.46-6.11H99Z"/><path class="cls-2" d="M103.23,87.39c0,1.29.68,2,1.82,2a1.39,1.39,0,0,0,1.46-.83h3.74c-.53,2.17-2.39,3.32-5.43,3.32-3.41,0-5.5-2.09-5.5-5.28,0-3.35,2.15-5.45,5.65-5.45s5.6,2.23,5.6,6v.24Zm1.7-3.86c-1,0-1.65.68-1.7,1.86h3.48C106.64,84.15,106.05,83.53,104.93,83.53Z"/><path class="cls-2" d="M117.11,95.56c-2.82,0-4.49-1.11-4.74-3h3.87c.09.49.44.68,1.15.68,1.29,0,1.46-.57,1.46-2.1v-.55a3.67,3.67,0,0,1-2.74,1c-2.65,0-4.39-2-4.39-5.08,0-3.29,1.7-5.3,4.2-5.3a3.7,3.7,0,0,1,3.23,1.57v-1.3h3.46v9.24C122.61,94.24,121.09,95.56,117.11,95.56Zm.07-11.37c-1.05,0-1.57.75-1.57,2.26s.5,2.38,1.57,2.38,1.65-.78,1.65-2.36S118.22,84.19,117.18,84.19Z"/><path class="cls-2" d="M129.52,91.88c-3.46,0-5.55-2-5.55-5.37s2.09-5.36,5.55-5.36,5.56,2,5.56,5.36S133,91.88,129.52,91.88Zm0-8c-1.18,0-1.61.81-1.61,2.59s.43,2.6,1.61,2.6,1.64-.83,1.64-2.6S130.71,83.92,129.52,83.92Z"/><path class="cls-3" d="M137.94,85.52h6v6h-6Z"/><path class="cls-1" d="M240.4,48.24V1.08A1.06,1.06,0,0,0,238.57.4l-4.73,4.72a1.44,1.44,0,0,0,0,2l.07.07a1.68,1.68,0,0,0,.18.21l2.73,2.74h0l1.41,1.41a1.08,1.08,0,0,1,0,1.51l-2,2h0l-1,1a1,1,0,0,0,0,1.47l.76.77.69.69,1.49,1.49a1,1,0,0,1,0,1.45l-3.43,3.43a1.05,1.05,0,0,1-1.47,0L229.82,22a1,1,0,0,1,0-1.46h0L232,18.33l.77-.77a1.05,1.05,0,0,0,0-1.47l-3.43-3.43a1.05,1.05,0,0,0-1.47,0l-3.43,3.43a1,1,0,0,0,0,1.47l.77.77.57.57,1.6,1.6a1,1,0,0,1,0,1.46l-3.43,3.43a1.05,1.05,0,0,1-1.47,0L219,22a1.05,1.05,0,0,1,0-1.47l.74-.73,2.19-2.2a1,1,0,0,0,0-1.47l-1.83-1.83h0L219,13.15a1.08,1.08,0,0,1,0-1.51l1.09-1.09h0l3.39-3.4a1.42,1.42,0,0,0,0-2L218.8.41a1.44,1.44,0,0,0-2,0l-4.71,4.71a1.42,1.42,0,0,0,0,2l3.39,3.4h0l1.09,1.09a1.06,1.06,0,0,1,0,1.51l-1.09,1.1h0l-1.84,1.83a1.05,1.05,0,0,0,0,1.47l2.2,2.2.74.73a1.05,1.05,0,0,1,0,1.47l-3.43,3.43a1.06,1.06,0,0,1-1.48,0L208.23,22a1,1,0,0,1,0-1.46l1.59-1.6.58-.57.77-.77a1.05,1.05,0,0,0,0-1.47l-3.43-3.43a1.05,1.05,0,0,0-1.47,0l-3.43,3.43a1.05,1.05,0,0,0,0,1.47l.77.77,2.16,2.16h0a1,1,0,0,1,0,1.46l-3.43,3.43a1,1,0,0,1-1.46,0L197.43,22a1,1,0,0,1,0-1.45L198.9,19l.7-.69.76-.77a1,1,0,0,0,0-1.47l-1-1h0l-2-2a1.08,1.08,0,0,1,0-1.51l1.41-1.41h0l2.73-2.74a1.12,1.12,0,0,0,.18-.21l.06-.07a1.42,1.42,0,0,0,0-2L197,.4a1.06,1.06,0,0,0-1.83.68V48.24H240.4m-40.77-7.7,1.65-1.49a.47.47,0,0,1,.64,0l1.48,1.49a.45.45,0,0,1,0,.64l-1.48,1.48a.45.45,0,0,1-.64,0l-1.49-1.48C199.62,41,199.46,40.72,199.63,40.54Zm4.69-8.27-2.24,2.23a.68.68,0,0,1-1,0l-2.24-2.23a.69.69,0,0,1,0-1l2.24-2.23a.68.68,0,0,1,1,0l2.24,2.23A.69.69,0,0,1,204.32,32.27Zm6.27,8.27,1.48-1.49a.47.47,0,0,1,.64,0l1.49,1.49a.45.45,0,0,1,0,.64l-1.49,1.48a.45.45,0,0,1-.64,0l-1.48-1.48A.45.45,0,0,1,210.59,40.54Zm4.52-8.27-2.23,2.23a.69.69,0,0,1-1,0l-2.23-2.23a.69.69,0,0,1,0-1l2.23-2.23a.69.69,0,0,1,1,0l2.23,2.23A.67.67,0,0,1,215.11,32.27Zm6.27,8.27,1.49-1.49a.47.47,0,0,1,.64,0L225,40.54a.45.45,0,0,1,0,.64l-1.48,1.48a.45.45,0,0,1-.64,0l-1.49-1.48A.45.45,0,0,1,221.38,40.54Zm4.51-8.27-2.23,2.23a.69.69,0,0,1-1,0l-2.23-2.23a.67.67,0,0,1,0-1l2.23-2.23a.69.69,0,0,1,1,0l2.23,2.23A.69.69,0,0,1,225.89,32.27Zm6.28,8.27,1.49-1.49a.47.47,0,0,1,.64,0l1.49,1.49a.45.45,0,0,1,0,.64l-1.49,1.48a.45.45,0,0,1-.64,0l-1.49-1.48A.47.47,0,0,1,232.17,40.54Zm4.51-8.27-2.23,2.23a.69.69,0,0,1-1,0l-2.23-2.23a.69.69,0,0,1,0-1l2.23-2.23a.69.69,0,0,1,1,0l2.23,2.23A.67.67,0,0,1,236.68,32.27Z"/><path class="cls-1" d="M180,101.87c0,.16.07.18.27.18a15.47,15.47,0,0,0,1.62-.07c0-.2,0-.55,0-1.24V99c.3.54,1.19,1.84,1.67,2.55.31.45.5.54.73.54A9.61,9.61,0,0,0,186,102v-.07c-.51-.68-1.73-2.29-2.35-3.29.69-.87,1.71-2.05,2-2.49.19-.26.14-.39-.21-.45a11.89,11.89,0,0,0-1.19-.08c-.53.78-1.45,1.89-2.41,3.2V96.21c0-.49,0-.61-.19-.61s-1.47.07-1.7.11c0,.23,0,.65,0,1.32v4.84m13.77-5.68c0-.49,0-.59-.24-.59-.69,0-1.42,0-1.65.07,0,.24,0,.65,0,1.34v2c0,2.17,1.09,3.12,3,3.12,1.49,0,3.19-.4,3.19-3.37V97.48c0-.86,0-1.47,0-1.88-.22,0-1.06,0-1.42,0-.17,0-.26.06-.26.28v3.15c0,1.4-.55,1.91-1.36,1.91s-1.35-.58-1.35-1.86Zm11,5.56.17.21a18.4,18.4,0,0,0,2.28.09,3.7,3.7,0,0,0,1.35-.09,1.88,1.88,0,0,0,.66-1.11l0,0a13.82,13.82,0,0,1-1.47.05,5.48,5.48,0,0,1-1.11-.06V96.18c0-.48,0-.58-.25-.58-.64,0-1.42.06-1.65.08,0,.23,0,.65,0,1.26Zm11.33.13c0,.16.07.19.26.19a13.39,13.39,0,0,0,1.65-.08c0-.21,0-.54,0-1.25V96.88h1.41c.34-.07.69-.28.81-1.2H216a9.89,9.89,0,0,1-1.57-.05,2,2,0,0,0-.46,1,.23.23,0,0,0,.24.29H216Zm12-5.69c0-.49,0-.59-.24-.59-.7,0-1.43,0-1.66.07,0,.24,0,.65,0,1.34v2c0,2.17,1.09,3.12,3,3.12,1.49,0,3.18-.4,3.18-3.37V97.48c0-.86,0-1.47,0-1.88-.21,0-1.06,0-1.42,0-.16,0-.26.06-.26.28v3.15c0,1.4-.55,1.91-1.36,1.91S228,100.4,228,99.12Zm12.79,3.36a.84.84,0,0,1,.86.55,14.12,14.12,0,0,0,.77,1.46,1.11,1.11,0,0,0,1.09.52,4.89,4.89,0,0,0,1.22-.12v0a8,8,0,0,1-.81-1.29,5.64,5.64,0,0,0-1.06-1.57,1.71,1.71,0,0,0,1.24-1.55c0-1.15-.74-1.9-2.74-1.9a11,11,0,0,0-2.41.26c0,.25,0,.5,0,1v3.36c0,.84,0,1.42,0,1.84.2,0,1.34,0,1.65,0,.12,0,.2-.07.2-.3Zm0-2.86a3.29,3.29,0,0,1,.51,0,.88.88,0,0,1,.93.94.85.85,0,0,1-.44.8,2,2,0,0,1-1,.13Zm11.25,5.17c0,.17.08.19.24.19A12.7,12.7,0,0,0,254,102c0-.23,0-.56,0-1.24v-1.3a.9.9,0,0,1,.13-.39c.15-.23,1.76-2.63,1.95-3,.1-.16.16-.31-.05-.38a5.07,5.07,0,0,0-1.37-.12c-.2.36-.84,1.57-1.35,2.43-.39-.73-.68-1.29-1-1.9-.26-.43-.36-.53-.56-.53a13,13,0,0,0-1.8.19v0c.27.36.93,1.37,1.68,2.49a5.68,5.68,0,0,1,.45.78.9.9,0,0,1,.09.44Zm-66.66-17.1a4.8,4.8,0,0,1-1.6.26,2,2,0,0,1-2.3-2.06,1.84,1.84,0,0,1,2-2,3.78,3.78,0,0,1,1.3.24.34.34,0,0,0,.33-.06,1.44,1.44,0,0,0,.36-.86,3,3,0,0,0-2.06-.58c-2.08,0-3.92,1.15-3.92,3.4,0,1.89,1.31,3.23,3.91,3.23A3.63,3.63,0,0,0,185,86a1.92,1.92,0,0,0,.44-1.2Zm5.69,1.15.17.21a17.42,17.42,0,0,0,2.28.1,4.69,4.69,0,0,0,1.49-.08,1.54,1.54,0,0,0,.67-1.12v0c-.34,0-.93.06-1.51.06A5.53,5.53,0,0,1,193,85V83.54h1.45c.38,0,.64-.07.89-1.17H193V81H194a2.83,2.83,0,0,0,1-.08c.15-.13.34-.33.41-1.12h-2.57c-.63,0-1.18.1-1.79.14,0,.46,0,.81,0,1.29Zm10.21-1.56c0,.86,0,1.44,0,1.87a9.85,9.85,0,0,0,1.26,0,.27.27,0,0,0,.24-.3V83.46c0-.73,0-1.36-.07-2.13.51,1.14.71,1.57,1.26,2.6a18.3,18.3,0,0,0,1.2,2.09.43.43,0,0,0,.41.2c.35,0,1.5-.14,1.59-.15V81.64c0-.86,0-1.45,0-1.87-.21,0-.93,0-1.24,0s-.26,0-.26.27v1.8c0,.78,0,1.31.1,2.32a10.93,10.93,0,0,0-.81-1.77c-.37-.74-1.1-2.13-1.35-2.5a.41.41,0,0,0-.35-.16c-.15,0-1.74,0-2.05.07v.06l.07.25ZM214.89,86c0,.17.07.19.26.19a11.64,11.64,0,0,0,1.65-.08c0-.21,0-.54,0-1.25V81h1.41c.34-.07.69-.28.81-1.2h-4.17a9.8,9.8,0,0,1-1.57,0,2.07,2.07,0,0,0-.46,1A.23.23,0,0,0,213,81h1.87Zm11.45-2.33a.85.85,0,0,1,.86.56,13.72,13.72,0,0,0,.77,1.45,1.09,1.09,0,0,0,1.08.52,4.46,4.46,0,0,0,1.22-.12v-.05a8.08,8.08,0,0,1-.8-1.29,5.57,5.57,0,0,0-1.06-1.56,1.73,1.73,0,0,0,1.23-1.56c0-1.15-.74-1.89-2.74-1.89a11.84,11.84,0,0,0-2.4.25c0,.25,0,.5,0,1v3.36c0,.84,0,1.42,0,1.85.2,0,1.35,0,1.66,0,.12,0,.2-.07.2-.3Zm0-2.85a2.24,2.24,0,0,1,.51,0,.89.89,0,0,1,.93,1,.83.83,0,0,1-.45.79,2,2,0,0,1-1,.13Zm11.16-.51c0-.49-.05-.58-.24-.58-.7,0-1.42,0-1.65.06,0,.24,0,.65,0,1.34v2c0,2.16,1.09,3.11,3,3.11,1.49,0,3.18-.39,3.18-3.36V81.64c0-.85,0-1.46,0-1.87-.22,0-1.07,0-1.43,0-.16,0-.26,0-.26.27v3.15c0,1.41-.55,1.91-1.36,1.91s-1.34-.58-1.34-1.86Zm15.56-.21c-.39,1-1,2.74-1.28,3.41l-1.18-3.47c-.08-.22-.15-.31-.42-.31a8.41,8.41,0,0,0-1.8.18l0,.28c-.33,2.16-.75,4.74-.93,5.84a6.71,6.71,0,0,0,1.38.15c.12,0,.18,0,.2-.2.14-1.46.43-3.31.47-4.53.31,1.1,1.11,3.67,1.37,4.62a7.56,7.56,0,0,0,1.5-.2c.6-1.92,1.13-3.45,1.34-4.33l.1,1.56c.09,1.68.14,2.24.18,2.84,0,.14.06.24.24.24a14.37,14.37,0,0,0,1.66-.15c0-.35-.19-1.22-.32-2.28l-.45-3.71c0-.25-.13-.31-.28-.31a10,10,0,0,0-1.8.18ZM180,68.51c0,.86,0,1.44,0,1.87a10.12,10.12,0,0,0,1.27,0,.26.26,0,0,0,.23-.29V67.62c0-.73,0-1.36-.07-2.13.51,1.14.71,1.57,1.26,2.61a18.77,18.77,0,0,0,1.2,2.08.44.44,0,0,0,.42.2c.34,0,1.49-.13,1.58-.15V65.8c0-.86,0-1.44,0-1.87l-1.24,0c-.19,0-.25.06-.25.28V66c0,.78,0,1.31.09,2.32a10.47,10.47,0,0,0-.81-1.76c-.37-.75-1.1-2.14-1.35-2.51a.39.39,0,0,0-.35-.16c-.15,0-1.74,0-2,.08v0l.07.25Zm13.77.53c0,.17.19.53.38,1a.4.4,0,0,0,.44.32,9.05,9.05,0,0,0,1.61-.13v-.06c-.2-.45-.48-1.08-.95-2.27-.28-.75-.94-2.54-1.52-3.88,0-.06-.08-.11-.23-.11s-1,0-1.81.15l0,.21c-.5,1.27-2,4.74-2.45,5.93v0a8.66,8.66,0,0,0,1.39.13c.22,0,.32,0,.4-.21s.35-.87.43-1.13Zm-1.9-1.21c.34-1,.6-1.72.76-2.23.15.44.33.94.75,2.23Zm9.59,0a.85.85,0,0,1,.86.56c.28.58.62,1.25.76,1.46a1.13,1.13,0,0,0,1.09.52,5,5,0,0,0,1.23-.12v-.06a7.84,7.84,0,0,1-.81-1.28,5.49,5.49,0,0,0-1.06-1.57,1.73,1.73,0,0,0,1.23-1.55c0-1.16-.74-1.9-2.74-1.9a11.84,11.84,0,0,0-2.4.25c0,.26,0,.51,0,1v3.36c0,.83,0,1.41,0,1.84.2,0,1.35,0,1.66,0,.12,0,.2-.06.2-.29Zm0-2.85a2.39,2.39,0,0,1,.51,0,.88.88,0,0,1,.93.94.82.82,0,0,1-.45.79,2.06,2.06,0,0,1-1,.14Zm10.28-1.17a3.3,3.3,0,0,0-3.56,3.4,3.13,3.13,0,0,0,3.46,3.23,3.26,3.26,0,0,0,3.57-3.39,3.18,3.18,0,0,0-3.46-3.24ZM211.6,65c1,0,1.57,1,1.57,2.18s-.47,2.09-1.42,2.09-1.6-.83-1.6-2.19.74-2.08,1.44-2.08Zm7.22,5.19a10.24,10.24,0,0,0,1.92.19c2.19,0,4.42-.69,4.42-3.28,0-1.32-.55-3.2-3.81-3.2a12.22,12.22,0,0,0-2.54.28c0,.24,0,.41,0,1.11Zm1.87-5.1c.24,0,.47,0,.64,0a1.77,1.77,0,0,1,1.83,2,1.9,1.9,0,0,1-1.92,2.18c-.18,0-.43,0-.55,0ZM232,63.85a3.3,3.3,0,0,0-3.56,3.4,3.13,3.13,0,0,0,3.47,3.23,3.25,3.25,0,0,0,3.56-3.39A3.18,3.18,0,0,0,232,63.85ZM231.87,65c1,0,1.58,1,1.58,2.18S233,69.3,232,69.3s-1.6-.83-1.6-2.19.74-2.08,1.44-2.08Zm8.51,5.35c.51,0,1.2-.07,1.42-.09s.28-.2.36-.45c.32-1,.86-2.85,1-3.56.33,1.23.82,3.1,1.05,4.1a10.5,10.5,0,0,0,1.42-.09.6.6,0,0,0,.33-.42c.44-1.14,1-2.73,1.48-3.87.36-1,.51-1.46.54-1.54.09-.26,0-.42-.27-.46-.46,0-1.1-.07-1.21-.07-.17.64-.5,1.75-1.24,4.14-.31-1.25-.85-3.11-1-3.85-.07-.21-.16-.29-.37-.29a4.79,4.79,0,0,0-1.43.25,1,1,0,0,1,0,.43c-.38,1.31-.86,3.09-1,3.57-.32-1.37-.77-2.9-1-3.68-.12-.47-.23-.57-.5-.57a14.16,14.16,0,0,0-1.66.16c.12.3.4,1.14.66,1.87C239.52,67.63,240.19,69.87,240.38,70.38Zm11.12-.31.18.22a20.5,20.5,0,0,0,2.27.09,4.69,4.69,0,0,0,1.49-.08,1.49,1.49,0,0,0,.67-1.12v0c-.34,0-.93.06-1.51.06a5.6,5.6,0,0,1-1.22-.07V67.7h1.45c.38,0,.65-.07.89-1.17h-2.34V65.21h1.07a2.53,2.53,0,0,0,1-.09c.15-.13.34-.33.41-1.11h-2.57c-.63,0-1.18.09-1.79.13,0,.47,0,.81,0,1.29Z"/><path class="cls-1" d="M7.79,157.87c0-1.39,0-1.78,0-2.3a26,26,0,0,1,4.13-.38c6.06,0,7.15,3.64,7.15,6.22,0,4.35-3.12,6.69-7.25,6.69a18.63,18.63,0,0,1-4-.39Zm2.52,8.5a6.64,6.64,0,0,0,1.57.16c1.81,0,4.45-.87,4.45-5.08,0-3-1.73-4.69-4.73-4.69a6.33,6.33,0,0,0-1.29.1Z"/><path class="cls-1" d="M25.39,158.79a4.25,4.25,0,0,1,4.44,4.55,4.49,4.49,0,0,1-4.66,4.8,4.25,4.25,0,0,1-4.45-4.59,4.56,4.56,0,0,1,4.65-4.76Zm-.22,1.49c-1.23,0-1.89,1.27-1.89,3,0,2.3,1,3.37,2.11,3.37s1.88-1.23,1.88-3.08-.61-3.29-2.08-3.29Z"/><path class="cls-1" d="M40.06,167.41c0,.41-.16.51-.59.55s-1.1.06-1.91.06c0-.81.06-2,.06-3.15v-4.35c-.54.06-1.57.06-3.12.09,0,1.77.08,6.16.08,7.29a21.42,21.42,0,0,1-2.28.12c-.2,0-.28,0-.28-.24.08-2.18,0-4.64,0-7.17-.78,0-1.17-.25-1.17-.67a5.67,5.67,0,0,1,1.17-.91,4.71,4.71,0,0,1,1.83-4,4.46,4.46,0,0,1,2.82-.87,3.34,3.34,0,0,1,2.12.64,1.24,1.24,0,0,1,0,.81c-.16.36-.38.6-.67.64a3.78,3.78,0,0,0-1.59-.4c-1.23,0-2.09.93-2,3.22.54,0,2,0,3.22,0,.91,0,1.59-.16,1.91-.16s.39.18.39,1.35Z"/><path class="cls-1" d="M48.58,162.46c0-1.17-.63-1.84-1.51-1.84a2.56,2.56,0,0,0-1.74.75v6c0,.37-.06.47-.46.51a13.51,13.51,0,0,1-2,.12c0-1.07.06-2.3.06-3.67v-3.3c0-.61-.08-.91-.39-1.09v-.14a1.85,1.85,0,0,1,1.51-1c.77,0,1.07.73,1.19,1.35a4.59,4.59,0,0,1,2.8-1.35c2.56,0,3,2.12,3,3.69V165c0,1,0,2.15.08,2.84A21.13,21.13,0,0,1,49,168c-.3,0-.4-.12-.4-.39Z"/><path class="cls-1" d="M61.16,166.45a1.5,1.5,0,0,1-1.69,1.69A1.63,1.63,0,0,1,57.84,167a3.43,3.43,0,0,1-2.38,1.13,2.47,2.47,0,0,1-2.51-2.5c0-2.07,2.41-2.64,3.84-3,.37-.08.81-.14,1.05-.2v-.34a1.48,1.48,0,0,0-1.59-1.53,3.86,3.86,0,0,0-1.87.58c-.85.24-1.13-.48-1.13-1.09a6.78,6.78,0,0,1,3.64-1.31,3.17,3.17,0,0,1,3.29,3.41c0,.82-.08,2.35-.08,3.66,0,.26.24.55.72.55a2,2,0,0,0,.34,0Zm-5.88-1.15a1.11,1.11,0,0,0,1.19,1.11,1.46,1.46,0,0,0,1.17-.53,1,1,0,0,0,.16-.68v-1.43c-1.75.2-2.52.84-2.52,1.51Z"/><path class="cls-1" d="M68.82,162.46c0-1.17-.63-1.84-1.51-1.84a2.56,2.56,0,0,0-1.74.75v6c0,.37-.06.47-.46.51a13.51,13.51,0,0,1-2,.12c0-1.07.06-2.3.06-3.67v-3.3c0-.61-.08-.91-.39-1.09v-.14a1.85,1.85,0,0,1,1.52-1c.76,0,1.06.73,1.18,1.35a4.59,4.59,0,0,1,2.8-1.35c2.56,0,3,2.12,3,3.69V165c0,1,0,2.15.09,2.84-.47,0-1.27.16-2.12.16-.3,0-.4-.12-.4-.39Z"/><path class="cls-1" d="M76.75,158.79a3.64,3.64,0,0,1,2.26.71c0,.52-.22,1.31-.93,1.25a3.51,3.51,0,0,0-1.39-.33c-.6,0-1,.33-1,.81s.33.66.75.91,1.19.58,1.65.82a2.43,2.43,0,0,1,1.41,2.22c0,2-1.77,3-3.6,3a4.28,4.28,0,0,1-2.18-.57.89.89,0,0,1-.44-.72,1.57,1.57,0,0,1,.52-1.09,4.66,4.66,0,0,0,2.26.73c.72,0,1.15-.35,1.15-.85s-.21-.62-.79-.93-1-.52-1.53-.8a2.55,2.55,0,0,1-1.41-2.3c0-1.79,1.55-2.82,3.28-2.82Z"/><path class="cls-1" d="M85.59,158.79A4.24,4.24,0,0,1,90,163.34a4.48,4.48,0,0,1-4.65,4.8,4.25,4.25,0,0,1-4.45-4.59,4.56,4.56,0,0,1,4.65-4.76Zm-.22,1.49c-1.23,0-1.89,1.27-1.89,3,0,2.3,1,3.37,2.11,3.37s1.88-1.23,1.88-3.08-.61-3.29-2.08-3.29Z"/><path class="cls-1" d="M93.15,158.79c.24,0,.38.14.46.49.44,1.53.87,3.18,1.55,6,1-3.08,1.25-3.95,1.63-5.3,0-.18-.08-.42-.12-.6a8.35,8.35,0,0,1,1.79-.37c.33,0,.39.23.51.69.36,1.39,1,3.6,1.51,5.46.68-2.12,1.43-4.72,1.85-6.37A6.35,6.35,0,0,1,104,159c.26.13.3.39.08,1.07-.84,2.44-1.67,4.71-2.55,7.19-.15.41-.23.57-.63.67a7.32,7.32,0,0,1-1.65.18c-.52-2-1-3.51-1.61-5.72-.43,1.35-1,3.14-1.61,4.89-.12.4-.24.57-.57.65a8.91,8.91,0,0,1-1.59.18c-.52-1.63-1.15-3.73-1.91-6-.45-1.33-.73-2.14-1-2.82a8.2,8.2,0,0,1,2.18-.51Z"/><path class="cls-1" d="M113.33,166.45a1.51,1.51,0,0,1-1.69,1.69A1.65,1.65,0,0,1,110,167a3.43,3.43,0,0,1-2.37,1.13,2.48,2.48,0,0,1-2.52-2.5c0-2.07,2.42-2.64,3.85-3,.36-.08.8-.14,1-.2v-.34a1.48,1.48,0,0,0-1.59-1.53,3.9,3.9,0,0,0-1.87.58c-.85.24-1.13-.48-1.13-1.09a6.85,6.85,0,0,1,3.65-1.31,3.16,3.16,0,0,1,3.28,3.41c0,.82-.08,2.35-.08,3.66,0,.26.24.55.72.55a2,2,0,0,0,.35,0Zm-5.88-1.15a1.1,1.1,0,0,0,1.18,1.11,1.46,1.46,0,0,0,1.17-.53,1,1,0,0,0,.16-.68v-1.43c-1.75.2-2.51.84-2.51,1.51Z"/><path class="cls-1" d="M121,162.46c0-1.17-.62-1.84-1.51-1.84a2.51,2.51,0,0,0-1.73.75v6c0,.37-.06.47-.47.51a13.43,13.43,0,0,1-2,.12c0-1.07.06-2.3.06-3.67v-3.3c0-.61-.08-.91-.38-1.09v-.14a1.82,1.82,0,0,1,1.51-1c.76,0,1.07.73,1.19,1.35a4.54,4.54,0,0,1,2.8-1.35c2.55,0,3,2.12,3,3.69V165c0,1,0,2.15.08,2.84-.46,0-1.27.16-2.12.16-.3,0-.4-.12-.4-.39Z"/><path class="cls-1" d="M130.14,158.79a4.25,4.25,0,0,1,4.44,4.55,4.49,4.49,0,0,1-4.66,4.8,4.25,4.25,0,0,1-4.45-4.59,4.56,4.56,0,0,1,4.65-4.76Zm-.22,1.49c-1.23,0-1.89,1.27-1.89,3,0,2.3,1,3.37,2.11,3.37s1.88-1.23,1.88-3.08-.61-3.29-2.08-3.29Z"/><path class="cls-1" d="M140,167.37c.61-.92,3.35-5.07,4.21-6.75h-2.82c-.92,0-1.29-.18-1.19-.62a2.4,2.4,0,0,1,.61-1.13,4.08,4.08,0,0,0,1.67.16h4.75a2.76,2.76,0,0,1-.3,1.29c-.26.65-2.13,3.91-3.46,6a28.45,28.45,0,0,0,4.33,0,2.33,2.33,0,0,1-.69,1.37c-.3.18-.56.28-2.62.28a29.62,29.62,0,0,1-4.25-.2Z"/><path class="cls-1" d="M156.15,165.9a2.45,2.45,0,0,1-1.05,1.88,5.6,5.6,0,0,1-1.87.36c-2.95,0-4.56-1.61-4.56-4.57,0-2.44,1.59-4.78,4.31-4.78a3.35,3.35,0,0,1,3.57,3.47,2.85,2.85,0,0,1-.06.66c-.06.3-.87.59-1.69.79a25.73,25.73,0,0,1-3.71.1,2.55,2.55,0,0,0,2.76,2.52,6.12,6.12,0,0,0,2.26-.47Zm-3.39-5.7c-.74,0-1.55.71-1.63,2.22a27.05,27.05,0,0,0,2.86,0c.14,0,.26-.2.26-.42,0-1-.44-1.8-1.47-1.8Z"/><path class="cls-1" d="M165.71,158.79a3.64,3.64,0,0,1,2.26.71c0,.52-.22,1.31-.93,1.25a3.55,3.55,0,0,0-1.39-.33c-.6,0-1,.33-1,.81s.33.66.75.91,1.19.58,1.65.82a2.43,2.43,0,0,1,1.41,2.22c0,2-1.77,3-3.6,3a4.28,4.28,0,0,1-2.18-.57.89.89,0,0,1-.44-.72,1.57,1.57,0,0,1,.52-1.09,4.62,4.62,0,0,0,2.26.73c.72,0,1.14-.35,1.14-.85s-.2-.62-.78-.93-1-.52-1.53-.8a2.55,2.55,0,0,1-1.41-2.3c0-1.79,1.55-2.82,3.28-2.82Zm.44-4.71a2.2,2.2,0,0,1,1.41.58c.15.1.17.18,0,.41-.86.94-1.75,2.13-2.29,2.8a1.81,1.81,0,0,1-.71-.33c-.12-.08-.18-.22,0-.56.29-.79,1.13-2.9,1.65-2.9Z"/><path class="cls-1" d="M170,159.84a1.94,1.94,0,0,1,1.47-1.05c.89,0,1.25.85,1.27,2.1.58-1.37,1.43-2.1,2.5-2.1a1.55,1.55,0,0,1,.94.34,1.61,1.61,0,0,1-.12,1.19,1.27,1.27,0,0,1-.78,1,2.28,2.28,0,0,0-1-.2c-.32,0-.9.24-1.23,1.09a2.38,2.38,0,0,0-.18,1v4.21c0,.32,0,.49-.44.57a17.55,17.55,0,0,1-2.06.1c0-1.07.06-2.3.06-3.67V161a1.08,1.08,0,0,0-.46-1Z"/><path class="cls-1" d="M181.56,158.79a4.24,4.24,0,0,1,4.43,4.55,4.48,4.48,0,0,1-4.65,4.8,4.25,4.25,0,0,1-4.45-4.59,4.56,4.56,0,0,1,4.65-4.76Zm-.22,1.49c-1.23,0-1.89,1.27-1.89,3,0,2.3,1,3.37,2.11,3.37s1.88-1.23,1.88-3.08-.61-3.29-2.08-3.29Z"/><path class="cls-1" d="M193.93,156.7a14.44,14.44,0,0,0-.1-2.1,10.28,10.28,0,0,1,2.15-.36c.3,0,.38.1.38,1.33v10.07c0,.79.27,1,.83,1.11v.06c-.1.58-.66,1.33-1.23,1.33a1.61,1.61,0,0,1-1.75-1.09,5,5,0,0,1-2.6,1.09c-2.35,0-4-1.73-4-4.39a4.85,4.85,0,0,1,5.08-5,3.08,3.08,0,0,1,1.21.2Zm0,3.8a2.78,2.78,0,0,0-1.13-.22c-1.21,0-2.6.89-2.6,3.13,0,1.89,1.13,2.9,2.46,2.9a2.6,2.6,0,0,0,1.27-.37Z"/><path class="cls-1" d="M201.7,163.26c.91-1,3.29-3.82,3.77-4.47a5.26,5.26,0,0,1,1.41.16c.46.14.52.37.08.91-.83,1-1.81,2.1-2.78,3.14a44.3,44.3,0,0,0,3.51,4.71l0,.07a5.39,5.39,0,0,1-1.8.28,1.58,1.58,0,0,1-1.49-.87,35.24,35.24,0,0,1-2.68-3.7v3.92c0,.41-.14.49-.62.53a11.09,11.09,0,0,1-1.87.08c0-.83.06-2,.06-3.69v-7.55c0-1.21,0-1.81-.08-2.24a9,9,0,0,1,2.15-.3c.28,0,.36.1.36,1.33Z"/><path class="cls-1" d="M212.9,158.79a4.24,4.24,0,0,1,4.43,4.55,4.48,4.48,0,0,1-4.65,4.8,4.25,4.25,0,0,1-4.45-4.59,4.56,4.56,0,0,1,4.65-4.76Zm-.22,1.49c-1.23,0-1.89,1.27-1.89,3,0,2.3,1,3.37,2.11,3.37s1.87-1.23,1.87-3.08-.6-3.29-2.07-3.29Zm.67-6.2a2.25,2.25,0,0,1,1.41.58c.14.1.16.18,0,.41-.86.94-1.75,2.13-2.29,2.8a1.81,1.81,0,0,1-.71-.33c-.12-.08-.18-.22,0-.56.28-.79,1.13-2.9,1.65-2.9Z"/><path class="cls-1" d="M220.45,158.79c.24,0,.39.14.47.49.44,1.53.86,3.18,1.55,6,.94-3.08,1.25-3.95,1.63-5.3,0-.18-.08-.42-.12-.6a8.35,8.35,0,0,1,1.79-.37c.32,0,.38.23.5.69.37,1.39,1,3.6,1.51,5.46.69-2.12,1.43-4.72,1.86-6.37a6.35,6.35,0,0,1,1.67.24c.26.13.3.39.08,1.07-.85,2.44-1.67,4.71-2.56,7.19-.14.41-.22.57-.62.67a7.38,7.38,0,0,1-1.65.18c-.53-2-1-3.51-1.62-5.72-.42,1.35-1,3.14-1.61,4.89-.12.4-.24.57-.56.65a9,9,0,0,1-1.59.18c-.53-1.63-1.15-3.73-1.91-6-.45-1.33-.73-2.14-1-2.82a8.22,8.22,0,0,1,2.17-.51Z"/><path class="cls-1" d="M7.45,181.88v-.1c.38-.06,2.11-.16,2.48-.16.2,0,.36.14.56.36.65.93,2.3,3.44,3.75,5.68a36.63,36.63,0,0,1,2.13,3.59c-.12-1.56-.1-2.34-.1-3.35v-5.62c0-.46.14-.54.42-.58.63-.06,1.17-.08,1.64-.08,0,.86-.06,2-.06,3.7v8.89a8.57,8.57,0,0,1-1.92.32.53.53,0,0,1-.5-.28c-1-1.45-2.08-3-3.67-5.48-1.06-1.69-1.65-2.82-2.47-4.37.12,2,.1,3.08.1,4.11v5.27c0,.43-.12.49-.45.55a9.28,9.28,0,0,1-1.61.08c0-.81.06-2,.06-3.67v-8.36Z"/><path class="cls-1" d="M28.68,192.84A1.51,1.51,0,0,1,27,194.53a1.63,1.63,0,0,1-1.64-1.13A3.43,3.43,0,0,1,23,194.53a2.48,2.48,0,0,1-2.52-2.5c0-2.07,2.42-2.64,3.85-3,.36-.08.8-.14,1-.2v-.34A1.48,1.48,0,0,0,23.76,187a3.9,3.9,0,0,0-1.87.58c-.85.24-1.13-.48-1.13-1.09a6.85,6.85,0,0,1,3.65-1.31,3.16,3.16,0,0,1,3.28,3.41c0,.82-.08,2.35-.08,3.66,0,.26.24.55.73.55a2,2,0,0,0,.34,0Zm-5.88-1.15A1.1,1.1,0,0,0,24,192.8a1.44,1.44,0,0,0,1.17-.53,1,1,0,0,0,.16-.68v-1.43c-1.75.2-2.51.84-2.51,1.51Z"/><path class="cls-1" d="M30.19,186.23a1.92,1.92,0,0,1,1.47-1c.88,0,1.25.85,1.27,2.1.58-1.37,1.43-2.1,2.49-2.1a1.5,1.5,0,0,1,.95.35,1.69,1.69,0,0,1-.12,1.18,1.27,1.27,0,0,1-.78.95,2.31,2.31,0,0,0-1-.2,1.46,1.46,0,0,0-1.23,1.09,2.38,2.38,0,0,0-.18,1v4.21c0,.33,0,.49-.44.57a17.55,17.55,0,0,1-2.06.1c0-1.07.06-2.3.06-3.67v-3.4a1.08,1.08,0,0,0-.46-1Z"/><path class="cls-1" d="M41.79,185.18a4.24,4.24,0,0,1,4.43,4.56,4.48,4.48,0,0,1-4.65,4.79,4.25,4.25,0,0,1-4.45-4.59,4.56,4.56,0,0,1,4.65-4.76Zm-.22,1.49c-1.23,0-1.9,1.27-1.9,3,0,2.3,1,3.37,2.12,3.37s1.87-1.23,1.87-3.08-.6-3.29-2.07-3.29Z"/><path class="cls-1" d="M54.16,183.09a13.94,13.94,0,0,0-.11-2.1,10.48,10.48,0,0,1,2.16-.36c.3,0,.38.1.38,1.33V192c0,.79.26,1,.83,1.11v.06c-.1.58-.67,1.33-1.23,1.33a1.6,1.6,0,0,1-1.75-1.09,4.92,4.92,0,0,1-2.6,1.09c-2.36,0-4-1.73-4-4.39a4.85,4.85,0,0,1,5.08-5,3.12,3.12,0,0,1,1.21.2Zm0,3.81a2.63,2.63,0,0,0-1.13-.23c-1.21,0-2.6.89-2.6,3.13,0,1.89,1.13,2.9,2.46,2.9a2.63,2.63,0,0,0,1.27-.37Z"/><path class="cls-1" d="M63.5,185.18a4.24,4.24,0,0,1,4.43,4.56,4.48,4.48,0,0,1-4.65,4.79,4.25,4.25,0,0,1-4.45-4.59,4.56,4.56,0,0,1,4.65-4.76Zm-.22,1.49c-1.23,0-1.9,1.27-1.9,3,0,2.3,1,3.37,2.12,3.37s1.87-1.23,1.87-3.08-.6-3.29-2.07-3.29Z"/><path class="cls-1" d="M71.05,185.18c.24,0,.39.14.47.49.44,1.53.86,3.18,1.55,6,.94-3.08,1.25-3.95,1.63-5.3,0-.18-.08-.42-.12-.6a8.35,8.35,0,0,1,1.79-.37c.32,0,.38.23.5.69.37,1.39,1,3.6,1.51,5.46.69-2.12,1.43-4.72,1.86-6.37a6.35,6.35,0,0,1,1.67.24c.26.13.3.39.08,1.07-.85,2.44-1.67,4.72-2.56,7.19-.14.41-.22.57-.62.67a7.38,7.38,0,0,1-1.65.18c-.53-2-1-3.51-1.62-5.72-.42,1.35-1,3.14-1.61,4.89-.12.41-.24.57-.56.65a9,9,0,0,1-1.59.18c-.53-1.63-1.15-3.73-1.92-6-.44-1.33-.72-2.14-1-2.82a8.63,8.63,0,0,1,2.17-.51Z"/><path class="cls-1" d="M90.61,192.29a2.45,2.45,0,0,1-1,1.88,5.6,5.6,0,0,1-1.87.36c-2.94,0-4.55-1.61-4.55-4.57,0-2.44,1.59-4.78,4.31-4.78A3.35,3.35,0,0,1,91,188.65a2.85,2.85,0,0,1-.06.66c-.06.3-.86.59-1.69.79a25.68,25.68,0,0,1-3.71.1,2.55,2.55,0,0,0,2.76,2.52,6.07,6.07,0,0,0,2.26-.47Zm-3.38-5.7c-.75,0-1.56.71-1.64,2.22a27.05,27.05,0,0,0,2.86,0c.14,0,.27-.2.27-.42,0-1-.45-1.8-1.47-1.8Z"/><path class="cls-1" d="M96.27,185.18a6.94,6.94,0,0,1,1.65.22,9.69,9.69,0,0,0,1.51.27,5.58,5.58,0,0,0,1.55-.22,1.24,1.24,0,0,1,.1.5,1,1,0,0,1-1,1.17c-.14,0-.36,0-.58,0a3.07,3.07,0,0,1,.24,1.14c0,2.06-1.61,3.07-3.52,3.07a2.33,2.33,0,0,1-.73-.08c-.14.14-.32.32-.32.48s.2.5.91.56l2.39.16c1.86.13,2.56,1.17,2.56,2.36,0,2.38-2.38,3.75-4.89,3.75s-4-1.15-4-2.66c0-.87.94-1.47,1.85-1.89a1.94,1.94,0,0,1-1.23-1.72.3.3,0,0,1,.18-.26,7.15,7.15,0,0,0,1.39-1,2.63,2.63,0,0,1-1.79-2.61c0-1.94,1.61-3.23,3.73-3.23Zm-2,10.44c0,.88,1.11,1.41,2.42,1.41s2.24-.49,2.24-1.37c0-.53-.31-1-1.41-1.13a10.65,10.65,0,0,0-1.9-.12,1.51,1.51,0,0,0-.7.16,1.16,1.16,0,0,0-.65,1Zm1.9-9.13c-.85,0-1.35.83-1.35,1.77,0,1.13.58,1.82,1.45,1.82s1.35-.77,1.35-1.75-.35-1.84-1.43-1.84Z"/><path class="cls-1" d="M106.44,185.18a4.24,4.24,0,0,1,4.43,4.56,4.48,4.48,0,0,1-4.65,4.79,4.25,4.25,0,0,1-4.45-4.59,4.56,4.56,0,0,1,4.65-4.76Zm-.22,1.49c-1.23,0-1.9,1.27-1.9,3,0,2.3,1,3.37,2.12,3.37s1.87-1.23,1.87-3.08-.6-3.29-2.07-3.29Z"/><path class="cls-1" d="M127.38,192.31a2.52,2.52,0,0,1-.66,1.59,5.71,5.71,0,0,1-2.92.69c-4.59,0-7.07-2.62-7.07-6.47,0-4.17,3.16-6.72,7.15-6.72a6.14,6.14,0,0,1,3.71,1c0,.69-.43,1.37-1.07,1.27a6.9,6.9,0,0,0-2.66-.54c-2.44,0-4.43,1.59-4.43,4.81a4.59,4.59,0,0,0,4.95,4.84,9.58,9.58,0,0,0,2.94-.51Z"/><path class="cls-1" d="M136.11,192.29a2.45,2.45,0,0,1-1.05,1.88,5.6,5.6,0,0,1-1.87.36c-2.95,0-4.56-1.61-4.56-4.57,0-2.44,1.59-4.78,4.31-4.78a3.35,3.35,0,0,1,3.57,3.47,2.85,2.85,0,0,1-.06.66c-.06.3-.87.59-1.69.79a25.73,25.73,0,0,1-3.71.1,2.55,2.55,0,0,0,2.76,2.52,6.12,6.12,0,0,0,2.26-.47Zm-3.39-5.7c-.74,0-1.55.71-1.63,2.22a27.05,27.05,0,0,0,2.86,0c.14,0,.26-.2.26-.42,0-1-.44-1.8-1.47-1.8Z"/><path class="cls-1" d="M144.16,188.85c0-1.17-.62-1.83-1.51-1.83a2.52,2.52,0,0,0-1.73.74v6c0,.37-.06.47-.46.51a13.64,13.64,0,0,1-2,.12c0-1.07.06-2.3.06-3.67v-3.3c0-.61-.08-.91-.38-1.09v-.14a1.82,1.82,0,0,1,1.51-1c.76,0,1.07.73,1.19,1.35a4.54,4.54,0,0,1,2.8-1.35c2.56,0,3,2.12,3,3.69v2.54c0,1,0,2.15.08,2.84-.46,0-1.27.16-2.12.16-.3,0-.4-.12-.4-.38Z"/><path class="cls-1" d="M154.67,192.47a1.49,1.49,0,0,1-.34,1.41,3.44,3.44,0,0,1-2.21.65,2.45,2.45,0,0,1-2.72-2.7V187c-.75,0-1.13-.37-1.13-.57a13.43,13.43,0,0,1,2.26-2.31,2.45,2.45,0,0,1,1.51-.61,15.67,15.67,0,0,0-.13,1.89h3c-.25,1.39-.69,1.45-1.09,1.49a18.52,18.52,0,0,1-2,.09,39.65,39.65,0,0,0,0,4.45c.11,1,.65,1.35,1.33,1.35a2.82,2.82,0,0,0,1.41-.37Z"/><path class="cls-1" d="M156.06,186.23a2,2,0,0,1,1.47-1c.89,0,1.25.85,1.27,2.1.59-1.37,1.43-2.1,2.5-2.1a1.52,1.52,0,0,1,.95.35,1.69,1.69,0,0,1-.12,1.18,1.28,1.28,0,0,1-.79.95,2.25,2.25,0,0,0-1-.2c-.32,0-.9.24-1.22,1.09a2.23,2.23,0,0,0-.19,1v4.21c0,.33,0,.49-.44.57a17.38,17.38,0,0,1-2.05.1c0-1.07.06-2.3.06-3.67v-3.4a1.07,1.07,0,0,0-.47-1Z"/><path class="cls-1" d="M163.88,187.8a22.17,22.17,0,0,0-.08-2.25,11.09,11.09,0,0,1,2.13-.25c.3,0,.39.1.39,1.27v4.23c0,1.55.92,1.86,1.65,1.86a2.25,2.25,0,0,0,1.51-.63v-5.8c0-.58.06-.7.42-.78a15.14,15.14,0,0,1,2.08-.15c0,.43-.07,1.88-.07,3.63V192c0,.81.27,1,.81,1.11v.12c-.08.6-.68,1.29-1.21,1.29a1.6,1.6,0,0,1-1.75-1.29,6.65,6.65,0,0,1-1.53,1,3.38,3.38,0,0,1-1.29.28c-2.16,0-3.06-1.43-3.06-3.41Z"/><path class="cls-1" d="M177.29,193.74c0,.37-.06.49-.46.57a17,17,0,0,1-2,.1c0-1.07.06-2.3.06-3.67v-3.38c0-.55-.08-.85-.38-1v-.14a1.87,1.87,0,0,1,1.49-1c.85,0,1.07.73,1.21,1.35a4.94,4.94,0,0,1,2.92-1.35,2.5,2.5,0,0,1,2.44,1.47,5.05,5.05,0,0,1,3.08-1.47c2.28,0,2.88,2,2.88,3.49v2.74c0,1,0,2.15.06,2.84-.46,0-1.27.16-2.11.16-.26,0-.39-.12-.39-.38v-5.18c0-1.13-.52-1.83-1.51-1.83a2.46,2.46,0,0,0-1.65.76v6c0,.37,0,.47-.46.53a13.81,13.81,0,0,1-2,.1c.05-1.07.06-2.3.06-3.67v-1.89c0-1.15-.52-1.83-1.47-1.83a2.53,2.53,0,0,0-1.69.76Z"/><path class="cls-1" d="M195.82,184.34c0-1.35,0-2.18-.06-2.56.38-.06,1.75-.16,2.18-.16s.4.18.4,1.07v5.17c1.51-1.73,3.89-4.53,5.28-6.32a7.72,7.72,0,0,1,1.39.12c.72.12.7.4.28,1-.93,1.13-3,3.49-4.37,5a71.92,71.92,0,0,0,5.17,6.45v.06a5.87,5.87,0,0,1-2,.28c-.63,0-1-.16-1.59-.91-1-1.17-3.79-4.75-4.15-5.38v3.61c0,1.41,0,2.07.06,2.48a14,14,0,0,1-2.13.16c-.31,0-.45-.06-.45-.38Z"/><path class="cls-1" d="M207.26,187.8a22.17,22.17,0,0,0-.08-2.25,11.11,11.11,0,0,1,2.14-.25c.3,0,.38.1.38,1.27v4.23c0,1.55.92,1.86,1.65,1.86a2.23,2.23,0,0,0,1.51-.63v-5.8c0-.58.06-.7.42-.78a15.14,15.14,0,0,1,2.08-.15c0,.43-.06,1.88-.06,3.63V192c0,.81.26,1,.8,1.11v.12c-.08.6-.68,1.29-1.21,1.29a1.61,1.61,0,0,1-1.75-1.29,6.44,6.44,0,0,1-1.53,1,3.34,3.34,0,0,1-1.29.28c-2.15,0-3.06-1.43-3.06-3.41Z"/><path class="cls-1" d="M218.14,183.13a20.49,20.49,0,0,0-.08-2.14,8.64,8.64,0,0,1,2.13-.36c.3,0,.38.1.38,1.31v9.69c0,1,0,2.07.09,2.66a18.84,18.84,0,0,1-2.24.16c-.2,0-.28-.06-.28-.26Z"/><path class="cls-1" d="M228.73,192.47a1.52,1.52,0,0,1-.34,1.41,3.45,3.45,0,0,1-2.22.65,2.46,2.46,0,0,1-2.72-2.7V187c-.74,0-1.12-.37-1.12-.57a13.76,13.76,0,0,1,2.25-2.31,2.47,2.47,0,0,1,1.51-.61,15.6,15.6,0,0,0-.12,1.89h3c-.24,1.39-.68,1.45-1.09,1.49a18.3,18.3,0,0,1-2,.09,39.65,39.65,0,0,0,0,4.45c.1,1,.65,1.35,1.33,1.35a2.85,2.85,0,0,0,1.41-.37Z"/><path class="cls-1" d="M230.4,187.8a22.17,22.17,0,0,0-.08-2.25,11.2,11.2,0,0,1,2.14-.25c.3,0,.38.1.38,1.27v4.23c0,1.55.93,1.86,1.65,1.86A2.23,2.23,0,0,0,236,192v-5.8c0-.58.06-.7.43-.78a14.9,14.9,0,0,1,2.07-.15c0,.43-.06,1.88-.06,3.63V192c0,.81.26,1,.81,1.11v.12c-.09.6-.69,1.29-1.21,1.29a1.62,1.62,0,0,1-1.76-1.29,6.44,6.44,0,0,1-1.53,1,3.34,3.34,0,0,1-1.29.28c-2.15,0-3.06-1.43-3.06-3.41Z"/><path class="cls-1" d="M240.92,186.23a1.92,1.92,0,0,1,1.47-1c.88,0,1.25.85,1.27,2.1.58-1.37,1.43-2.1,2.49-2.1a1.5,1.5,0,0,1,.95.35,1.69,1.69,0,0,1-.12,1.18,1.26,1.26,0,0,1-.79.95,2.24,2.24,0,0,0-1-.2,1.45,1.45,0,0,0-1.23,1.09,2.38,2.38,0,0,0-.18,1v4.21c0,.33,0,.49-.45.57a17.38,17.38,0,0,1-2.05.1c0-1.07.06-2.3.06-3.67v-3.4a1.08,1.08,0,0,0-.46-1Z"/><path class="cls-1" d="M249,197.57a21.56,21.56,0,0,0,2.56-3.75,5.08,5.08,0,0,1-.44-.88c-.39-1-2.14-5.6-2.9-7.21a5.93,5.93,0,0,1,2.05-.55c.36,0,.46.24.61.57.5,1.31,1.46,4.13,1.95,5.64a43.13,43.13,0,0,0,1.85-6.21,6.41,6.41,0,0,1,1.39.22c.49.13.55.39.42.87a37.75,37.75,0,0,1-2.51,7.09c-1.29,2.68-2.88,5-3.35,5a2.32,2.32,0,0,1-1.63-.75Z"/><path class="cls-1" d="M8.74,211.57c.24,0,.38.14.46.49.45,1.53.87,3.18,1.55,6,.95-3.08,1.25-3.95,1.63-5.3,0-.18-.08-.42-.12-.6a8.44,8.44,0,0,1,1.8-.37c.32,0,.38.23.5.69.36,1.39,1,3.6,1.51,5.46.68-2.12,1.43-4.72,1.85-6.37a6.29,6.29,0,0,1,1.67.24c.27.13.31.39.09,1.07-.85,2.44-1.68,4.71-2.56,7.19-.14.41-.22.57-.63.67a7.26,7.26,0,0,1-1.65.18c-.52-2-1-3.51-1.61-5.72-.42,1.35-1.05,3.14-1.61,4.89-.12.41-.24.57-.57.65a8.91,8.91,0,0,1-1.59.18c-.52-1.63-1.14-3.73-1.91-6-.44-1.33-.72-2.14-1-2.82a8.3,8.3,0,0,1,2.18-.51Z"/><path class="cls-1" d="M25.52,212.62A1.92,1.92,0,0,1,27,211.57c.88,0,1.24.85,1.26,2.1.59-1.37,1.44-2.1,2.5-2.1a1.56,1.56,0,0,1,.95.34,1.72,1.72,0,0,1-.12,1.19,1.28,1.28,0,0,1-.79,1,2.24,2.24,0,0,0-1-.2,1.45,1.45,0,0,0-1.23,1.09,2.38,2.38,0,0,0-.18,1v4.21c0,.33,0,.49-.45.57a17.38,17.38,0,0,1-2,.1c0-1.07.06-2.3.06-3.67v-3.4a1.08,1.08,0,0,0-.46-1Z"/><path class="cls-1" d="M40.84,219.23a1.5,1.5,0,0,1-1.69,1.69,1.61,1.61,0,0,1-1.63-1.13,3.43,3.43,0,0,1-2.38,1.13,2.48,2.48,0,0,1-2.52-2.5c0-2.07,2.42-2.64,3.85-3,.36-.08.81-.14,1.05-.2v-.34a1.48,1.48,0,0,0-1.59-1.53,3.94,3.94,0,0,0-1.88.58c-.84.24-1.12-.48-1.12-1.09a6.78,6.78,0,0,1,3.64-1.31A3.17,3.17,0,0,1,39.86,215c0,.82-.09,2.35-.09,3.66,0,.26.25.55.73.55a2,2,0,0,0,.34,0ZM35,218.08a1.1,1.1,0,0,0,1.19,1.11,1.48,1.48,0,0,0,1.17-.53,1,1,0,0,0,.16-.68v-1.43c-1.75.2-2.52.84-2.52,1.51Z"/><path class="cls-1" d="M45.25,220.13c0,.37-.06.49-.46.57a16.93,16.93,0,0,1-2,.1c0-1.07.06-2.3.06-3.67v-3.38c0-.55-.08-.85-.39-1v-.14a1.87,1.87,0,0,1,1.49-1c.85,0,1.07.73,1.21,1.35a5,5,0,0,1,2.92-1.35A2.5,2.5,0,0,1,50.49,213a5.08,5.08,0,0,1,3.08-1.47c2.28,0,2.88,2,2.88,3.49v2.74c0,1,0,2.15.06,2.84-.46,0-1.27.16-2.11.16a.34.34,0,0,1-.39-.39v-5.17c0-1.13-.52-1.83-1.51-1.83a2.48,2.48,0,0,0-1.65.76v6c0,.37,0,.47-.46.53a13.81,13.81,0,0,1-2,.1c0-1.07.06-2.3.06-3.67v-1.89c0-1.15-.52-1.83-1.47-1.83a2.53,2.53,0,0,0-1.69.76Z"/><path class="cls-1" d="M66.6,219.23a1.5,1.5,0,0,1-1.69,1.69,1.61,1.61,0,0,1-1.63-1.13,3.46,3.46,0,0,1-2.38,1.13,2.48,2.48,0,0,1-2.52-2.5c0-2.07,2.42-2.64,3.85-3,.36-.08.81-.14,1.05-.2v-.34a1.49,1.49,0,0,0-1.59-1.53,3.94,3.94,0,0,0-1.88.58c-.84.24-1.12-.48-1.12-1.09a6.78,6.78,0,0,1,3.64-1.31A3.16,3.16,0,0,1,65.61,215c0,.82-.08,2.35-.08,3.66,0,.26.25.55.73.55a2,2,0,0,0,.34,0Zm-5.88-1.15a1.1,1.1,0,0,0,1.19,1.11,1.5,1.5,0,0,0,1.17-.53,1,1,0,0,0,.16-.68v-1.43c-1.75.2-2.52.84-2.52,1.51Z"/><path class="cls-1" d="M75.44,218.78a2.49,2.49,0,0,1-.66,1.61,4.42,4.42,0,0,1-2.28.53c-2.62,0-4.65-1.51-4.65-4.47a4.78,4.78,0,0,1,5-4.88,4.23,4.23,0,0,1,2.69.77c0,.52-.26,1.27-1,1.25a4.88,4.88,0,0,0-1.63-.33,2.55,2.55,0,0,0-2.58,2.84,2.75,2.75,0,0,0,2.88,3,5.93,5.93,0,0,0,2.17-.39Z"/><path class="cls-1" d="M79.69,212.76a4.35,4.35,0,0,1,2.8-1.19c1.9,0,2.88,1.45,2.88,3.59v2.68c0,1,0,2.11.06,2.8a15.9,15.9,0,0,1-2.09.16c-.3,0-.4-.12-.4-.43v-5.11c0-1.19-.63-1.85-1.56-1.85a2.81,2.81,0,0,0-1.69.68v6c0,.37-.06.49-.46.57a17,17,0,0,1-2,.1c0-1.07.07-2.28.07-3.65v-7.59a20.44,20.44,0,0,0-.09-2.18,10.05,10.05,0,0,1,2.16-.36c.28,0,.36.1.36,1.33Z"/><path class="cls-1" d="M95.06,224.3c0,.34,0,.47-.46.55a16.79,16.79,0,0,1-2,.1c0-.79.06-1.92.06-3.29v-7.91c0-.53-.1-.91-.38-1v-.14a1.8,1.8,0,0,1,1.53-1c.71,0,1,.63,1.13,1.19a5.18,5.18,0,0,1,2.84-1.19c2.09,0,3.6,1.72,3.6,4.25a4.85,4.85,0,0,1-4.85,5.1,3,3,0,0,1-1.43-.34Zm0-5.17a3.36,3.36,0,0,0,1.15.22c1.27,0,2.58-.95,2.58-3.19,0-1.55-.83-2.69-2.08-2.69a3.1,3.1,0,0,0-1.65.56Z"/><path class="cls-1" d="M103.12,212.62a1.92,1.92,0,0,1,1.47-1.05c.88,0,1.25.85,1.27,2.1.58-1.37,1.43-2.1,2.49-2.1a1.56,1.56,0,0,1,1,.34,1.72,1.72,0,0,1-.12,1.19,1.26,1.26,0,0,1-.79,1,2.24,2.24,0,0,0-1-.2,1.45,1.45,0,0,0-1.23,1.09,2.38,2.38,0,0,0-.18,1v4.21c0,.33,0,.49-.45.57a17.38,17.38,0,0,1-2,.1c0-1.07.06-2.3.06-3.67v-3.4a1.08,1.08,0,0,0-.46-1Z"/><path class="cls-1" d="M114.72,211.57a4.24,4.24,0,0,1,4.43,4.55,4.48,4.48,0,0,1-4.65,4.8,4.26,4.26,0,0,1-4.46-4.59,4.57,4.57,0,0,1,4.66-4.76Zm-.22,1.49c-1.23,0-1.9,1.27-1.9,3,0,2.3,1,3.37,2.12,3.37s1.87-1.23,1.87-3.08-.6-3.29-2.07-3.29Z"/><path class="cls-1" d="M124.57,211.57a7,7,0,0,1,1.65.22,8.48,8.48,0,0,0,1.51.27,5.18,5.18,0,0,0,1.55-.23,1.32,1.32,0,0,1,.1.51,1,1,0,0,1-1,1.17c-.14,0-.36,0-.58,0a3.07,3.07,0,0,1,.24,1.14c0,2.06-1.61,3.07-3.53,3.07a2.3,2.3,0,0,1-.72-.08c-.14.14-.32.32-.32.48s.2.5.9.56l2.4.16c1.85.12,2.56,1.17,2.56,2.36,0,2.38-2.38,3.75-4.9,3.75s-4-1.15-4-2.66c0-.87.94-1.47,1.85-1.9a1.9,1.9,0,0,1-1.23-1.71.3.3,0,0,1,.18-.26,7.47,7.47,0,0,0,1.39-1.05,2.63,2.63,0,0,1-1.79-2.61c0-1.94,1.61-3.23,3.73-3.23Zm-2,10.44c0,.88,1.11,1.41,2.42,1.41s2.23-.49,2.23-1.37c0-.53-.3-1-1.41-1.13a10.54,10.54,0,0,0-1.89-.12,1.51,1.51,0,0,0-.7.16,1.14,1.14,0,0,0-.65,1Zm1.89-9.13c-.84,0-1.34.83-1.34,1.77,0,1.13.58,1.82,1.45,1.82s1.34-.77,1.34-1.76-.34-1.83-1.43-1.83Z"/><path class="cls-1" d="M130.43,212.62a1.92,1.92,0,0,1,1.47-1.05c.88,0,1.24.85,1.26,2.1.59-1.37,1.43-2.1,2.5-2.1a1.58,1.58,0,0,1,1,.34,1.72,1.72,0,0,1-.12,1.19,1.28,1.28,0,0,1-.79,1,2.24,2.24,0,0,0-1-.2,1.45,1.45,0,0,0-1.23,1.09,2.38,2.38,0,0,0-.18,1v4.21c0,.33,0,.49-.45.57a17.38,17.38,0,0,1-2,.1c0-1.07.06-2.3.06-3.67v-3.4a1.08,1.08,0,0,0-.46-1Z"/><path class="cls-1" d="M145.75,219.23a1.5,1.5,0,0,1-1.69,1.69,1.61,1.61,0,0,1-1.63-1.13,3.43,3.43,0,0,1-2.38,1.13,2.47,2.47,0,0,1-2.51-2.5c0-2.07,2.41-2.64,3.84-3,.36-.08.81-.14,1.05-.2v-.34a1.48,1.48,0,0,0-1.59-1.53A3.94,3.94,0,0,0,139,214c-.84.24-1.12-.48-1.12-1.09a6.78,6.78,0,0,1,3.64-1.31,3.17,3.17,0,0,1,3.29,3.41c0,.82-.08,2.35-.08,3.66,0,.26.24.55.72.55a2,2,0,0,0,.34,0Zm-5.88-1.15a1.1,1.1,0,0,0,1.19,1.11,1.48,1.48,0,0,0,1.17-.53,1,1,0,0,0,.16-.68v-1.43c-1.75.2-2.52.84-2.52,1.51Z"/><path class="cls-1" d="M150.16,220.13c0,.37-.06.49-.46.57a17,17,0,0,1-2,.1c.05-1.07.07-2.3.07-3.67v-3.38c0-.55-.09-.85-.39-1v-.14a1.87,1.87,0,0,1,1.49-1c.85,0,1.07.73,1.21,1.35a4.94,4.94,0,0,1,2.92-1.35A2.5,2.5,0,0,1,155.4,213a5.08,5.08,0,0,1,3.08-1.47c2.28,0,2.88,2,2.88,3.49v2.74c0,1,0,2.15.06,2.84-.46,0-1.27.16-2.11.16-.27,0-.39-.12-.39-.39v-5.17c0-1.13-.52-1.83-1.51-1.83a2.48,2.48,0,0,0-1.65.76v6c0,.37,0,.47-.46.53a13.81,13.81,0,0,1-2,.1c0-1.07.07-2.3.07-3.67v-1.89c0-1.15-.53-1.83-1.48-1.83a2.53,2.53,0,0,0-1.69.76Z"/><path class="cls-1" d="M164.1,214.19a22.17,22.17,0,0,0-.08-2.25,11.09,11.09,0,0,1,2.13-.25c.31,0,.39.1.39,1.27v4.23c0,1.55.92,1.85,1.65,1.85a2.24,2.24,0,0,0,1.51-.62v-5.8c0-.58.06-.71.42-.79a16.7,16.7,0,0,1,2.08-.14c0,.43-.06,1.88-.06,3.63v3.08c0,.81.26,1,.8,1.11v.12c-.08.6-.68,1.29-1.21,1.29a1.61,1.61,0,0,1-1.75-1.29,7,7,0,0,1-1.53,1,3.38,3.38,0,0,1-1.29.28c-2.15,0-3.06-1.43-3.06-3.41Z"/><path class="cls-1" d="M9.69,245.19a4.9,4.9,0,0,1-1.78,3.39,2.39,2.39,0,0,1-1.65.38,6.74,6.74,0,0,0,1.17-3.56,3.39,3.39,0,0,0-.12-.91A4.83,4.83,0,0,1,8.92,244c.5,0,.77.56.77,1.14Zm3.42,0a4.93,4.93,0,0,1-1.77,3.39,2.39,2.39,0,0,1-1.65.38,6.82,6.82,0,0,0,1.16-3.56,3.39,3.39,0,0,0-.12-.91,4.87,4.87,0,0,1,1.63-.46c.49,0,.75.56.75,1.14Z"/><path class="cls-1" d="M15.38,237.12c0-1.35,0-2.18-.06-2.56.39-.06,1.76-.16,2.18-.16s.4.18.4,1.07v5.17c1.51-1.73,3.89-4.53,5.28-6.32a7.65,7.65,0,0,1,1.39.12c.72.12.7.4.28,1-.93,1.12-3,3.48-4.37,5a73.87,73.87,0,0,0,5.18,6.45V247a6,6,0,0,1-2,.28c-.62,0-1-.16-1.59-.91-1-1.17-3.78-4.75-4.15-5.38v3.61c0,1.41,0,2.07.06,2.48a14,14,0,0,1-2.13.16c-.3,0-.45-.06-.45-.38Z"/><path class="cls-1" d="M26.82,240.58a22.17,22.17,0,0,0-.08-2.25,12.17,12.17,0,0,1,2.14-.25c.3,0,.38.1.38,1.27v4.23c0,1.55.93,1.86,1.65,1.86a2.23,2.23,0,0,0,1.51-.63V239c0-.58.06-.7.43-.78a15,15,0,0,1,2.07-.15c0,.43-.06,1.88-.06,3.63v3.08c0,.81.26,1,.81,1.11V246c-.08.6-.69,1.29-1.21,1.29A1.59,1.59,0,0,1,32.71,246a6.86,6.86,0,0,1-1.53,1,3.42,3.42,0,0,1-1.29.28c-2.16,0-3.07-1.43-3.07-3.4Z"/><path class="cls-1" d="M37.7,235.91a20.49,20.49,0,0,0-.08-2.14,8.64,8.64,0,0,1,2.13-.36c.31,0,.39.1.39,1.31v9.69c0,1,0,2.07.08,2.66a18.84,18.84,0,0,1-2.24.16c-.2,0-.28-.06-.28-.26Z"/><path class="cls-1" d="M48.29,245.25a1.54,1.54,0,0,1-.34,1.42,3.5,3.5,0,0,1-2.21.64,2.45,2.45,0,0,1-2.72-2.7V239.8c-.75,0-1.13-.37-1.13-.57a13.76,13.76,0,0,1,2.25-2.31,2.51,2.51,0,0,1,1.52-.61,15.69,15.69,0,0,0-.13,1.9h3c-.25,1.38-.69,1.45-1.09,1.49s-1.11.08-2,.08a39.65,39.65,0,0,0,0,4.45c.11,1,.65,1.35,1.33,1.35a2.72,2.72,0,0,0,1.41-.37Z"/><path class="cls-1" d="M50,240.58a22.17,22.17,0,0,0-.08-2.25,12,12,0,0,1,2.13-.25c.3,0,.38.1.38,1.27v4.23c0,1.55.93,1.86,1.65,1.86a2.23,2.23,0,0,0,1.51-.63V239c0-.58.07-.7.43-.78a15,15,0,0,1,2.07-.15c0,.43-.06,1.88-.06,3.63v3.08c0,.81.26,1,.81,1.11V246c-.08.6-.69,1.29-1.21,1.29A1.59,1.59,0,0,1,55.85,246a6.86,6.86,0,0,1-1.53,1,3.42,3.42,0,0,1-1.29.28c-2.16,0-3.06-1.43-3.06-3.4Z"/><path class="cls-1" d="M60.48,239A1.94,1.94,0,0,1,62,238c.89,0,1.25.85,1.27,2.1.58-1.37,1.43-2.1,2.5-2.1a1.49,1.49,0,0,1,.94.35,1.69,1.69,0,0,1-.12,1.18,1.27,1.27,0,0,1-.78.95,2.31,2.31,0,0,0-1-.2,1.46,1.46,0,0,0-1.23,1.09,2.38,2.38,0,0,0-.18,1v4.21c0,.33,0,.49-.44.57a17.55,17.55,0,0,1-2.06.1c0-1.07.06-2.3.06-3.67v-3.4a1.09,1.09,0,0,0-.46-1Z"/><path class="cls-1" d="M75.81,245.62a1.51,1.51,0,0,1-1.7,1.69,1.62,1.62,0,0,1-1.63-1.13,3.39,3.39,0,0,1-2.37,1.13,2.48,2.48,0,0,1-2.52-2.5c0-2.07,2.41-2.64,3.84-3,.37-.08.81-.14,1-.2v-.34a1.48,1.48,0,0,0-1.59-1.53,3.9,3.9,0,0,0-1.87.58c-.85.24-1.13-.48-1.13-1.09A6.85,6.85,0,0,1,71.54,238a3.16,3.16,0,0,1,3.28,3.41c0,.82-.08,2.35-.08,3.66,0,.26.24.55.72.55a2.21,2.21,0,0,0,.35,0Zm-5.89-1.15a1.11,1.11,0,0,0,1.19,1.11,1.44,1.44,0,0,0,1.17-.53,1,1,0,0,0,.16-.68v-1.43c-1.75.2-2.52.84-2.52,1.51Z"/><path class="cls-1" d="M83.2,238c.24,0,.38.14.46.49.44,1.53.87,3.18,1.55,6,1-3.08,1.25-3.95,1.63-5.3,0-.18-.08-.42-.12-.6a8.35,8.35,0,0,1,1.79-.37c.33,0,.39.23.51.69.36,1.39,1,3.61,1.51,5.46.68-2.12,1.43-4.71,1.85-6.37a5.9,5.9,0,0,1,1.67.25c.26.12.3.38.08,1.06-.84,2.44-1.67,4.72-2.55,7.19-.15.41-.23.57-.63.67a7.32,7.32,0,0,1-1.65.18c-.52-2-1-3.51-1.61-5.72-.42,1.35-1,3.14-1.61,4.89-.12.41-.24.57-.57.65a9,9,0,0,1-1.59.18c-.52-1.63-1.15-3.73-1.91-6-.44-1.33-.73-2.14-1-2.82a8.61,8.61,0,0,1,2.18-.51Z"/><path class="cls-1" d="M103.14,238a3.67,3.67,0,0,1,2.25.71c0,.52-.22,1.31-.92,1.25a3.59,3.59,0,0,0-1.39-.33c-.61,0-1,.33-1,.81s.32.67.74.91,1.19.58,1.66.82a2.45,2.45,0,0,1,1.41,2.22c0,2-1.78,3-3.61,3a4.34,4.34,0,0,1-2.17-.56.91.91,0,0,1-.45-.73,1.54,1.54,0,0,1,.53-1.09,4.62,4.62,0,0,0,2.25.73c.73,0,1.15-.34,1.15-.85s-.2-.62-.79-.93-1-.52-1.53-.8a2.57,2.57,0,0,1-1.41-2.3c0-1.79,1.55-2.82,3.29-2.82Z"/><path class="cls-1" d="M109,233.73a1.21,1.21,0,0,1,1.23,1.31,1.31,1.31,0,0,1-1.31,1.37,1.21,1.21,0,0,1-1.27-1.31,1.34,1.34,0,0,1,1.33-1.37Zm1.17,12.85c0,.37-.15.47-.59.53a15.72,15.72,0,0,1-1.91.08c0-.83.06-2,.06-3.16v-3.45a22.49,22.49,0,0,0-.08-2.25,10.84,10.84,0,0,1,2.15-.25c.29,0,.37.1.37,1.27Z"/><path class="cls-1" d="M119.75,245.07a2.41,2.41,0,0,1-1,1.88,5.54,5.54,0,0,1-1.87.36c-2.94,0-4.55-1.61-4.55-4.57,0-2.44,1.59-4.78,4.31-4.78a3.34,3.34,0,0,1,3.56,3.47,2.85,2.85,0,0,1-.06.66c-.06.3-.86.59-1.69.79a25.58,25.58,0,0,1-3.7.1,2.55,2.55,0,0,0,2.76,2.52,6.05,6.05,0,0,0,2.25-.47Zm-3.38-5.7c-.75,0-1.55.71-1.63,2.22a27.08,27.08,0,0,0,2.86,0c.14,0,.26-.2.26-.42,0-1-.44-1.8-1.47-1.8Z"/><path class="cls-1" d="M129.2,245.17a2.5,2.5,0,0,1-.67,1.62,4.48,4.48,0,0,1-2.27.52c-2.62,0-4.66-1.51-4.66-4.47a4.78,4.78,0,0,1,5-4.88,4.24,4.24,0,0,1,2.7.77c0,.52-.26,1.27-1,1.25a4.82,4.82,0,0,0-1.63-.32,2.55,2.55,0,0,0-2.58,2.84,2.74,2.74,0,0,0,2.88,3,6,6,0,0,0,2.18-.39Z"/><path class="cls-1" d="M132.3,233.73a1.21,1.21,0,0,1,1.23,1.31,1.31,1.31,0,0,1-1.31,1.37A1.21,1.21,0,0,1,131,235.1a1.34,1.34,0,0,1,1.33-1.37Zm1.17,12.85c0,.37-.14.47-.59.53a15.72,15.72,0,0,1-1.91.08c0-.83.06-2,.06-3.16v-3.45a22.49,22.49,0,0,0-.08-2.25,10.84,10.84,0,0,1,2.15-.25c.29,0,.37.1.37,1.27Z"/><path class="cls-1" d="M138.76,234.44a4.66,4.66,0,0,1-1.55,3.24,2.28,2.28,0,0,1-1.61.4,6.62,6.62,0,0,0,1-3.46,3.48,3.48,0,0,0-.1-.85,4.19,4.19,0,0,1,1.53-.44c.48,0,.72.48.72,1.09Zm3.33,0a4.7,4.7,0,0,1-1.55,3.24,2.37,2.37,0,0,1-1.66.4,6.47,6.47,0,0,0,1.05-3.46,2.68,2.68,0,0,0-.12-.85,4.46,4.46,0,0,1,1.57-.44c.47,0,.71.48.71,1.09Z"/></g></g></svg>